<mxfile host="app.diagrams.net" modified="2024-04-21T19:39:02.644Z" agent="Mozilla/5.0 (Windows NT 10.0; Win64; x64) AppleWebKit/537.36 (KHTML, like Gecko) Chrome/121.0.0.0 Safari/537.36 OPR/107.0.0.0" etag="9_hrHcmZAA0RU2dZ34Qs" version="24.1.0" type="device">
  <diagram name="Page-1" id="m94h5QDvBnnVw9HW6g_W">
    <mxGraphModel dx="3239" dy="1746" grid="1" gridSize="10" guides="1" tooltips="1" connect="1" arrows="1" fold="1" page="0" pageScale="1" pageWidth="827" pageHeight="1169" math="0" shadow="0">
      <root>
        <mxCell id="0" />
        <mxCell id="1" parent="0" />
        <mxCell id="DnBdWf2Q5VkKPlAViFYQ-75" value="" style="rounded=0;whiteSpace=wrap;html=1;fontFamily=Helvetica;fontSize=11;fontColor=default;labelBackgroundColor=default;" vertex="1" parent="1">
          <mxGeometry x="-1480" y="-440" width="1160" height="320" as="geometry" />
        </mxCell>
        <mxCell id="DnBdWf2Q5VkKPlAViFYQ-74" value="" style="rounded=0;whiteSpace=wrap;html=1;fontFamily=Helvetica;fontSize=11;fontColor=default;labelBackgroundColor=default;labelPosition=left;verticalLabelPosition=bottom;align=right;verticalAlign=top;" vertex="1" parent="1">
          <mxGeometry x="-1480" y="-760" width="1160" height="320" as="geometry" />
        </mxCell>
        <mxCell id="DnBdWf2Q5VkKPlAViFYQ-1" value="User" style="sketch=0;outlineConnect=0;fontColor=#232F3E;gradientColor=none;fillColor=#232F3D;strokeColor=none;dashed=0;verticalLabelPosition=top;verticalAlign=bottom;align=center;html=1;fontSize=12;fontStyle=0;aspect=fixed;pointerEvents=1;shape=mxgraph.aws4.user;labelPosition=center;" vertex="1" parent="1">
          <mxGeometry x="-1450" y="-360" width="80" height="80" as="geometry" />
        </mxCell>
        <mxCell id="DnBdWf2Q5VkKPlAViFYQ-15" value="Phishing Net&lt;br&gt;&lt;div&gt;Server&lt;/div&gt;" style="image;points=[];aspect=fixed;html=1;align=center;shadow=0;dashed=0;image=img/lib/allied_telesis/computer_and_terminals/Server_Desktop.svg;labelPosition=center;verticalLabelPosition=top;verticalAlign=bottom;" vertex="1" parent="1">
          <mxGeometry x="-750" y="-370" width="78.89" height="100" as="geometry" />
        </mxCell>
        <mxCell id="DnBdWf2Q5VkKPlAViFYQ-16" value="Microsoft Authorization&lt;br&gt;Server" style="image;points=[];aspect=fixed;html=1;align=center;shadow=0;dashed=0;image=img/lib/allied_telesis/computer_and_terminals/Server_Desktop.svg;labelPosition=center;verticalLabelPosition=top;verticalAlign=bottom;" vertex="1" parent="1">
          <mxGeometry x="-438.89" y="-690" width="78.89" height="100" as="geometry" />
        </mxCell>
        <mxCell id="DnBdWf2Q5VkKPlAViFYQ-18" value="Phishing Net &lt;br&gt;Web Extension" style="shape=image;html=1;verticalAlign=bottom;verticalLabelPosition=top;labelBackgroundColor=#ffffff;imageAspect=0;aspect=fixed;image=https://cdn0.iconfinder.com/data/icons/phosphor-regular-vol-4/256/puzzle-piece-128.png;labelPosition=center;align=center;" vertex="1" parent="1">
          <mxGeometry x="-1077" y="-366" width="100" height="100" as="geometry" />
        </mxCell>
        <mxCell id="DnBdWf2Q5VkKPlAViFYQ-23" value="Phishing Net&lt;br&gt;SPA" style="sketch=0;pointerEvents=1;shadow=0;dashed=0;html=1;strokeColor=none;fillColor=#505050;labelPosition=center;verticalLabelPosition=top;verticalAlign=bottom;outlineConnect=0;align=center;shape=mxgraph.office.concepts.web_page;" vertex="1" parent="1">
          <mxGeometry x="-1070" y="-680" width="80" height="95" as="geometry" />
        </mxCell>
        <mxCell id="DnBdWf2Q5VkKPlAViFYQ-25" value="" style="edgeStyle=none;orthogonalLoop=1;jettySize=auto;html=1;rounded=0;" edge="1" parent="1">
          <mxGeometry width="100" relative="1" as="geometry">
            <mxPoint x="-760" y="-640" as="sourcePoint" />
            <mxPoint x="-980" y="-640" as="targetPoint" />
            <Array as="points" />
          </mxGeometry>
        </mxCell>
        <mxCell id="DnBdWf2Q5VkKPlAViFYQ-27" value="&lt;font color=&quot;#ff3333&quot;&gt;&lt;span style=&quot;font-size: 16px;&quot;&gt;&lt;b&gt;4&lt;/b&gt;&lt;/span&gt;&lt;/font&gt; Return AuthCookie&lt;br&gt;{AuthCookie}" style="edgeLabel;html=1;align=center;verticalAlign=middle;resizable=0;points=[];" vertex="1" connectable="0" parent="DnBdWf2Q5VkKPlAViFYQ-25">
          <mxGeometry x="-0.1961" y="-1" relative="1" as="geometry">
            <mxPoint x="-22" y="1" as="offset" />
          </mxGeometry>
        </mxCell>
        <mxCell id="DnBdWf2Q5VkKPlAViFYQ-26" value="&lt;b&gt;&lt;font style=&quot;font-size: 16px;&quot; color=&quot;#ff3333&quot;&gt;1&lt;/font&gt;&lt;/b&gt; SignUp&amp;nbsp;" style="edgeStyle=none;orthogonalLoop=1;jettySize=auto;html=1;rounded=0;" edge="1" parent="1">
          <mxGeometry x="0.1429" width="100" relative="1" as="geometry">
            <mxPoint x="-1360" y="-680" as="sourcePoint" />
            <mxPoint x="-1080" y="-680" as="targetPoint" />
            <Array as="points">
              <mxPoint x="-1300" y="-680" />
            </Array>
            <mxPoint as="offset" />
          </mxGeometry>
        </mxCell>
        <mxCell id="DnBdWf2Q5VkKPlAViFYQ-28" value="" style="edgeStyle=none;orthogonalLoop=1;jettySize=auto;html=1;rounded=0;" edge="1" parent="1">
          <mxGeometry width="100" relative="1" as="geometry">
            <mxPoint x="-980" y="-680" as="sourcePoint" />
            <mxPoint x="-760" y="-680" as="targetPoint" />
            <Array as="points" />
          </mxGeometry>
        </mxCell>
        <mxCell id="DnBdWf2Q5VkKPlAViFYQ-29" value="&lt;font color=&quot;#ff3333&quot;&gt;&lt;span style=&quot;font-size: 16px;&quot;&gt;&lt;b&gt;2&lt;/b&gt;&lt;/span&gt;&lt;/font&gt; Request SignUp&lt;br&gt;{username, password}" style="edgeLabel;html=1;align=center;verticalAlign=middle;resizable=0;points=[];" vertex="1" connectable="0" parent="DnBdWf2Q5VkKPlAViFYQ-28">
          <mxGeometry y="-2" relative="1" as="geometry">
            <mxPoint as="offset" />
          </mxGeometry>
        </mxCell>
        <mxCell id="DnBdWf2Q5VkKPlAViFYQ-31" value="" style="edgeStyle=none;orthogonalLoop=1;jettySize=auto;html=1;rounded=0;" edge="1" parent="1">
          <mxGeometry width="100" relative="1" as="geometry">
            <mxPoint x="-700" y="-580" as="sourcePoint" />
            <mxPoint x="-450" y="-531" as="targetPoint" />
            <Array as="points">
              <mxPoint x="-700" y="-530" />
            </Array>
          </mxGeometry>
        </mxCell>
        <mxCell id="DnBdWf2Q5VkKPlAViFYQ-32" value="&lt;font color=&quot;#ff3333&quot;&gt;&lt;span style=&quot;font-size: 16px;&quot;&gt;&lt;b&gt;3&lt;/b&gt;&lt;/span&gt;&lt;/font&gt; Generate AuthCode and&lt;br&gt;store user data&lt;br&gt;{username, password, authcode}" style="edgeLabel;html=1;align=center;verticalAlign=middle;resizable=0;points=[];" vertex="1" connectable="0" parent="DnBdWf2Q5VkKPlAViFYQ-31">
          <mxGeometry x="0.0503" relative="1" as="geometry">
            <mxPoint x="33" as="offset" />
          </mxGeometry>
        </mxCell>
        <mxCell id="DnBdWf2Q5VkKPlAViFYQ-33" value="" style="edgeStyle=none;orthogonalLoop=1;jettySize=auto;html=1;rounded=0;" edge="1" parent="1">
          <mxGeometry width="100" relative="1" as="geometry">
            <mxPoint x="-980" y="-600" as="sourcePoint" />
            <mxPoint x="-760" y="-600" as="targetPoint" />
            <Array as="points" />
          </mxGeometry>
        </mxCell>
        <mxCell id="DnBdWf2Q5VkKPlAViFYQ-34" value="&lt;font color=&quot;#ff3333&quot;&gt;&lt;span style=&quot;font-size: 16px;&quot;&gt;&lt;b&gt;7&lt;/b&gt;&lt;/span&gt;&lt;/font&gt; Request Link Account&lt;br&gt;{AuthCookie, AzureCode}" style="edgeLabel;html=1;align=center;verticalAlign=middle;resizable=0;points=[];" vertex="1" connectable="0" parent="DnBdWf2Q5VkKPlAViFYQ-33">
          <mxGeometry x="-0.2038" y="1" relative="1" as="geometry">
            <mxPoint x="22" y="1" as="offset" />
          </mxGeometry>
        </mxCell>
        <mxCell id="DnBdWf2Q5VkKPlAViFYQ-35" value="" style="edgeStyle=none;orthogonalLoop=1;jettySize=auto;html=1;rounded=0;" edge="1" parent="1">
          <mxGeometry width="100" relative="1" as="geometry">
            <mxPoint x="-1080" y="-640" as="sourcePoint" />
            <mxPoint x="-1360" y="-640" as="targetPoint" />
            <Array as="points">
              <mxPoint x="-1320" y="-640" />
            </Array>
          </mxGeometry>
        </mxCell>
        <mxCell id="DnBdWf2Q5VkKPlAViFYQ-36" value="&lt;b&gt;&lt;font style=&quot;font-size: 16px;&quot; color=&quot;#ff3333&quot;&gt;5&lt;/font&gt;&lt;/b&gt; Get user permission&amp;nbsp;&lt;br&gt;for Azure Application" style="edgeLabel;html=1;align=center;verticalAlign=middle;resizable=0;points=[];" vertex="1" connectable="0" parent="DnBdWf2Q5VkKPlAViFYQ-35">
          <mxGeometry x="-0.335" y="-1" relative="1" as="geometry">
            <mxPoint x="-27" y="1" as="offset" />
          </mxGeometry>
        </mxCell>
        <mxCell id="DnBdWf2Q5VkKPlAViFYQ-37" value="" style="edgeStyle=none;orthogonalLoop=1;jettySize=auto;html=1;rounded=0;" edge="1" parent="1">
          <mxGeometry width="100" relative="1" as="geometry">
            <mxPoint x="-1360" y="-600" as="sourcePoint" />
            <mxPoint x="-1080" y="-600.29" as="targetPoint" />
            <Array as="points" />
          </mxGeometry>
        </mxCell>
        <mxCell id="DnBdWf2Q5VkKPlAViFYQ-38" value="&lt;b&gt;&lt;font color=&quot;#ff3333&quot; style=&quot;font-size: 16px;&quot;&gt;6&lt;/font&gt;&lt;/b&gt; Give permission" style="edgeLabel;html=1;align=center;verticalAlign=middle;resizable=0;points=[];" vertex="1" connectable="0" parent="DnBdWf2Q5VkKPlAViFYQ-37">
          <mxGeometry x="0.3644" relative="1" as="geometry">
            <mxPoint x="-31" as="offset" />
          </mxGeometry>
        </mxCell>
        <mxCell id="DnBdWf2Q5VkKPlAViFYQ-39" value="" style="edgeStyle=none;orthogonalLoop=1;jettySize=auto;html=1;rounded=0;" edge="1" parent="1">
          <mxGeometry width="100" relative="1" as="geometry">
            <mxPoint x="-660" y="-665" as="sourcePoint" />
            <mxPoint x="-450" y="-665" as="targetPoint" />
            <Array as="points" />
          </mxGeometry>
        </mxCell>
        <mxCell id="DnBdWf2Q5VkKPlAViFYQ-40" value="&lt;font color=&quot;#ff3333&quot;&gt;&lt;span style=&quot;font-size: 16px;&quot;&gt;&lt;b&gt;8&lt;/b&gt;&lt;/span&gt;&lt;/font&gt; Authenticate&lt;br&gt;{AzureCode, ClientID,scope}" style="edgeLabel;html=1;align=center;verticalAlign=middle;resizable=0;points=[];" vertex="1" connectable="0" parent="DnBdWf2Q5VkKPlAViFYQ-39">
          <mxGeometry x="0.6057" y="1" relative="1" as="geometry">
            <mxPoint x="-58" y="1" as="offset" />
          </mxGeometry>
        </mxCell>
        <mxCell id="DnBdWf2Q5VkKPlAViFYQ-41" value="" style="edgeStyle=none;orthogonalLoop=1;jettySize=auto;html=1;rounded=0;" edge="1" parent="1">
          <mxGeometry width="100" relative="1" as="geometry">
            <mxPoint x="-450" y="-616" as="sourcePoint" />
            <mxPoint x="-660" y="-615.67" as="targetPoint" />
            <Array as="points">
              <mxPoint x="-650" y="-615.67" />
            </Array>
          </mxGeometry>
        </mxCell>
        <mxCell id="DnBdWf2Q5VkKPlAViFYQ-42" value="&lt;font color=&quot;#ff3333&quot;&gt;&lt;span style=&quot;font-size: 16px;&quot;&gt;&lt;b&gt;9&lt;/b&gt;&lt;/span&gt;&lt;/font&gt; Return Tokens&lt;br&gt;{AccessToken, RefreshToken}" style="edgeLabel;html=1;align=center;verticalAlign=middle;resizable=0;points=[];" vertex="1" connectable="0" parent="DnBdWf2Q5VkKPlAViFYQ-41">
          <mxGeometry x="-0.4182" y="-1" relative="1" as="geometry">
            <mxPoint x="-37" y="6" as="offset" />
          </mxGeometry>
        </mxCell>
        <mxCell id="DnBdWf2Q5VkKPlAViFYQ-43" value="" style="edgeStyle=none;orthogonalLoop=1;jettySize=auto;html=1;rounded=0;" edge="1" parent="1">
          <mxGeometry width="100" relative="1" as="geometry">
            <mxPoint x="-730" y="-580" as="sourcePoint" />
            <mxPoint x="-450" y="-480" as="targetPoint" />
            <Array as="points">
              <mxPoint x="-730" y="-480" />
            </Array>
          </mxGeometry>
        </mxCell>
        <mxCell id="DnBdWf2Q5VkKPlAViFYQ-44" value="&lt;b style=&quot;color: rgb(255, 51, 51); font-size: 16px;&quot;&gt;10&lt;/b&gt;&amp;nbsp;Store RefreshToken&lt;br&gt;{RefreshToken}" style="edgeLabel;html=1;align=center;verticalAlign=middle;resizable=0;points=[];" vertex="1" connectable="0" parent="DnBdWf2Q5VkKPlAViFYQ-43">
          <mxGeometry x="0.4261" y="-1" relative="1" as="geometry">
            <mxPoint as="offset" />
          </mxGeometry>
        </mxCell>
        <mxCell id="DnBdWf2Q5VkKPlAViFYQ-45" value="" style="edgeStyle=none;orthogonalLoop=1;jettySize=auto;html=1;rounded=0;" edge="1" parent="1">
          <mxGeometry width="100" relative="1" as="geometry">
            <mxPoint x="-1360" y="-360" as="sourcePoint" />
            <mxPoint x="-1080" y="-360" as="targetPoint" />
            <Array as="points" />
          </mxGeometry>
        </mxCell>
        <mxCell id="DnBdWf2Q5VkKPlAViFYQ-46" value="Text" style="edgeLabel;html=1;align=center;verticalAlign=middle;resizable=0;points=[];" vertex="1" connectable="0" parent="DnBdWf2Q5VkKPlAViFYQ-45">
          <mxGeometry x="-0.0067" y="1" relative="1" as="geometry">
            <mxPoint as="offset" />
          </mxGeometry>
        </mxCell>
        <mxCell id="DnBdWf2Q5VkKPlAViFYQ-47" value="&lt;font style=&quot;font-size: 16px;&quot; color=&quot;#ff3333&quot;&gt;&lt;b&gt;11&lt;/b&gt;&lt;/font&gt; Login" style="edgeLabel;html=1;align=center;verticalAlign=middle;resizable=0;points=[];" vertex="1" connectable="0" parent="DnBdWf2Q5VkKPlAViFYQ-45">
          <mxGeometry x="-0.0127" y="3" relative="1" as="geometry">
            <mxPoint as="offset" />
          </mxGeometry>
        </mxCell>
        <mxCell id="DnBdWf2Q5VkKPlAViFYQ-48" value="" style="edgeStyle=none;orthogonalLoop=1;jettySize=auto;html=1;rounded=0;" edge="1" parent="1">
          <mxGeometry width="100" relative="1" as="geometry">
            <mxPoint x="-980" y="-379" as="sourcePoint" />
            <mxPoint x="-760" y="-379" as="targetPoint" />
            <Array as="points" />
          </mxGeometry>
        </mxCell>
        <mxCell id="DnBdWf2Q5VkKPlAViFYQ-49" value="&lt;b style=&quot;color: rgb(255, 51, 51); font-size: 16px;&quot;&gt;12&lt;/b&gt;&amp;nbsp;Request Login&lt;br&gt;{username, password}" style="edgeLabel;html=1;align=center;verticalAlign=middle;resizable=0;points=[];" vertex="1" connectable="0" parent="DnBdWf2Q5VkKPlAViFYQ-48">
          <mxGeometry x="-0.3091" y="1" relative="1" as="geometry">
            <mxPoint x="41" as="offset" />
          </mxGeometry>
        </mxCell>
        <mxCell id="DnBdWf2Q5VkKPlAViFYQ-51" value="" style="edgeStyle=none;orthogonalLoop=1;jettySize=auto;html=1;rounded=0;" edge="1" parent="1">
          <mxGeometry width="100" relative="1" as="geometry">
            <mxPoint x="-760" y="-339" as="sourcePoint" />
            <mxPoint x="-980" y="-339" as="targetPoint" />
            <Array as="points">
              <mxPoint x="-780" y="-339" />
            </Array>
          </mxGeometry>
        </mxCell>
        <mxCell id="DnBdWf2Q5VkKPlAViFYQ-52" value="&lt;b style=&quot;color: rgb(255, 51, 51); font-size: 16px;&quot;&gt;13&lt;/b&gt;&amp;nbsp;Return AuthCookie&lt;br&gt;{AuthCookie}" style="edgeLabel;html=1;align=center;verticalAlign=middle;resizable=0;points=[];" vertex="1" connectable="0" parent="DnBdWf2Q5VkKPlAViFYQ-51">
          <mxGeometry x="0.2725" y="-1" relative="1" as="geometry">
            <mxPoint x="40" y="1" as="offset" />
          </mxGeometry>
        </mxCell>
        <mxCell id="DnBdWf2Q5VkKPlAViFYQ-53" value="" style="edgeStyle=none;orthogonalLoop=1;jettySize=auto;html=1;rounded=0;" edge="1" parent="1">
          <mxGeometry width="100" relative="1" as="geometry">
            <mxPoint x="-1360" y="-320" as="sourcePoint" />
            <mxPoint x="-1080" y="-320" as="targetPoint" />
            <Array as="points" />
          </mxGeometry>
        </mxCell>
        <mxCell id="DnBdWf2Q5VkKPlAViFYQ-55" value="&lt;b style=&quot;color: rgb(255, 51, 51); font-size: 16px;&quot;&gt;14&lt;/b&gt;&amp;nbsp;Check Email message" style="edgeLabel;html=1;align=center;verticalAlign=middle;resizable=0;points=[];" vertex="1" connectable="0" parent="DnBdWf2Q5VkKPlAViFYQ-53">
          <mxGeometry x="-0.0087" relative="1" as="geometry">
            <mxPoint as="offset" />
          </mxGeometry>
        </mxCell>
        <mxCell id="DnBdWf2Q5VkKPlAViFYQ-56" value="" style="edgeStyle=none;orthogonalLoop=1;jettySize=auto;html=1;rounded=0;" edge="1" parent="1">
          <mxGeometry width="100" relative="1" as="geometry">
            <mxPoint x="-980" y="-299" as="sourcePoint" />
            <mxPoint x="-760" y="-299" as="targetPoint" />
            <Array as="points">
              <mxPoint x="-820" y="-299" />
            </Array>
          </mxGeometry>
        </mxCell>
        <mxCell id="DnBdWf2Q5VkKPlAViFYQ-57" value="&lt;b style=&quot;color: rgb(255, 51, 51); font-size: 16px;&quot;&gt;15&lt;/b&gt;&amp;nbsp;Request Email Evaluation&lt;br&gt;{AuthCookie, ConversationID}" style="edgeLabel;html=1;align=center;verticalAlign=middle;resizable=0;points=[];" vertex="1" connectable="0" parent="DnBdWf2Q5VkKPlAViFYQ-56">
          <mxGeometry x="-0.3095" y="1" relative="1" as="geometry">
            <mxPoint x="44" y="1" as="offset" />
          </mxGeometry>
        </mxCell>
        <mxCell id="DnBdWf2Q5VkKPlAViFYQ-60" value="Graph API" style="image;points=[];aspect=fixed;html=1;align=center;shadow=0;dashed=0;image=img/lib/allied_telesis/computer_and_terminals/Server_Desktop.svg;labelPosition=center;verticalLabelPosition=top;verticalAlign=bottom;" vertex="1" parent="1">
          <mxGeometry x="-440" y="-370" width="78.89" height="100" as="geometry" />
        </mxCell>
        <mxCell id="DnBdWf2Q5VkKPlAViFYQ-62" value="" style="edgeStyle=none;orthogonalLoop=1;jettySize=auto;html=1;rounded=0;" edge="1" parent="1">
          <mxGeometry width="100" relative="1" as="geometry">
            <mxPoint x="-660" y="-345.42" as="sourcePoint" />
            <mxPoint x="-450" y="-345" as="targetPoint" />
            <Array as="points" />
          </mxGeometry>
        </mxCell>
        <mxCell id="DnBdWf2Q5VkKPlAViFYQ-64" value="&lt;b style=&quot;color: rgb(255, 51, 51); font-size: 16px;&quot;&gt;16&lt;/b&gt;&amp;nbsp;Get Detailed Info on Email&lt;br&gt;{AccessToken, ConversationID}" style="edgeLabel;html=1;align=center;verticalAlign=middle;resizable=0;points=[];" vertex="1" connectable="0" parent="DnBdWf2Q5VkKPlAViFYQ-62">
          <mxGeometry x="-0.0187" y="1" relative="1" as="geometry">
            <mxPoint as="offset" />
          </mxGeometry>
        </mxCell>
        <mxCell id="DnBdWf2Q5VkKPlAViFYQ-65" value="" style="edgeStyle=none;orthogonalLoop=1;jettySize=auto;html=1;rounded=0;" edge="1" parent="1">
          <mxGeometry width="100" relative="1" as="geometry">
            <mxPoint x="-450" y="-295" as="sourcePoint" />
            <mxPoint x="-660" y="-295" as="targetPoint" />
            <Array as="points" />
          </mxGeometry>
        </mxCell>
        <mxCell id="DnBdWf2Q5VkKPlAViFYQ-66" value="&lt;b style=&quot;color: rgb(255, 51, 51); font-size: 16px;&quot;&gt;17&lt;/b&gt;&amp;nbsp;Return Requested Info&lt;br&gt;{InternetMessageHeaders,&lt;div&gt;&amp;nbsp;EmailBody}&lt;/div&gt;" style="edgeLabel;html=1;align=center;verticalAlign=middle;resizable=0;points=[];" vertex="1" connectable="0" parent="DnBdWf2Q5VkKPlAViFYQ-65">
          <mxGeometry x="-0.021" y="3" relative="1" as="geometry">
            <mxPoint x="3" y="2" as="offset" />
          </mxGeometry>
        </mxCell>
        <mxCell id="DnBdWf2Q5VkKPlAViFYQ-67" value="" style="edgeStyle=none;orthogonalLoop=1;jettySize=auto;html=1;rounded=0;" edge="1" parent="1">
          <mxGeometry width="100" relative="1" as="geometry">
            <mxPoint x="-760" y="-260" as="sourcePoint" />
            <mxPoint x="-980" y="-260" as="targetPoint" />
            <Array as="points">
              <mxPoint x="-780" y="-260" />
              <mxPoint x="-965" y="-260" />
            </Array>
          </mxGeometry>
        </mxCell>
        <mxCell id="DnBdWf2Q5VkKPlAViFYQ-68" value="&lt;b style=&quot;color: rgb(255, 51, 51); font-size: 16px;&quot;&gt;18&lt;/b&gt;&amp;nbsp;Return Results of Evaluation&lt;div&gt;{alertMessages}&lt;/div&gt;" style="edgeLabel;html=1;align=center;verticalAlign=middle;resizable=0;points=[];" vertex="1" connectable="0" parent="DnBdWf2Q5VkKPlAViFYQ-67">
          <mxGeometry x="0.1566" y="4" relative="1" as="geometry">
            <mxPoint x="39" as="offset" />
          </mxGeometry>
        </mxCell>
        <mxCell id="DnBdWf2Q5VkKPlAViFYQ-69" value="" style="edgeStyle=none;orthogonalLoop=1;jettySize=auto;html=1;rounded=0;" edge="1" parent="1">
          <mxGeometry width="100" relative="1" as="geometry">
            <mxPoint x="-1080" y="-280" as="sourcePoint" />
            <mxPoint x="-1360" y="-280" as="targetPoint" />
            <Array as="points" />
          </mxGeometry>
        </mxCell>
        <mxCell id="DnBdWf2Q5VkKPlAViFYQ-70" value="&lt;b style=&quot;color: rgb(255, 51, 51); font-size: 16px;&quot;&gt;19&lt;/b&gt;&amp;nbsp;Display Alerts" style="edgeLabel;html=1;align=center;verticalAlign=middle;resizable=0;points=[];" vertex="1" connectable="0" parent="DnBdWf2Q5VkKPlAViFYQ-69">
          <mxGeometry x="0.1268" y="1" relative="1" as="geometry">
            <mxPoint x="18" as="offset" />
          </mxGeometry>
        </mxCell>
        <mxCell id="DnBdWf2Q5VkKPlAViFYQ-71" value="User" style="sketch=0;outlineConnect=0;fontColor=#232F3E;gradientColor=none;fillColor=#232F3D;strokeColor=none;dashed=0;verticalLabelPosition=top;verticalAlign=bottom;align=center;html=1;fontSize=12;fontStyle=0;aspect=fixed;pointerEvents=1;shape=mxgraph.aws4.user;labelPosition=center;" vertex="1" parent="1">
          <mxGeometry x="-1450" y="-680" width="80" height="80" as="geometry" />
        </mxCell>
        <mxCell id="DnBdWf2Q5VkKPlAViFYQ-72" value="Phishing Net&lt;br&gt;&lt;div&gt;Server&lt;/div&gt;" style="image;points=[];aspect=fixed;html=1;align=center;shadow=0;dashed=0;image=img/lib/allied_telesis/computer_and_terminals/Server_Desktop.svg;labelPosition=center;verticalLabelPosition=top;verticalAlign=bottom;" vertex="1" parent="1">
          <mxGeometry x="-750" y="-690" width="78.89" height="100" as="geometry" />
        </mxCell>
        <mxCell id="DnBdWf2Q5VkKPlAViFYQ-73" value="Phishing Net&lt;br&gt;DB" style="shape=cylinder3;whiteSpace=wrap;html=1;boundedLbl=1;backgroundOutline=1;size=15;" vertex="1" parent="1">
          <mxGeometry x="-438.89" y="-560" width="80" height="100" as="geometry" />
        </mxCell>
        <mxCell id="DnBdWf2Q5VkKPlAViFYQ-82" value="" style="rounded=0;whiteSpace=wrap;html=1;fontFamily=Helvetica;fontSize=11;fontColor=default;labelBackgroundColor=default;" vertex="1" parent="1">
          <mxGeometry x="-1480" y="-520" width="160" height="80" as="geometry" />
        </mxCell>
        <mxCell id="DnBdWf2Q5VkKPlAViFYQ-77" value="&lt;font style=&quot;font-size: 20px;&quot;&gt;&lt;b&gt;SPA Cycle&lt;/b&gt;&lt;/font&gt;" style="text;html=1;align=center;verticalAlign=middle;resizable=0;points=[];autosize=1;strokeColor=none;fillColor=none;fontFamily=Helvetica;fontSize=11;fontColor=default;labelBackgroundColor=default;" vertex="1" parent="1">
          <mxGeometry x="-1460" y="-500" width="120" height="40" as="geometry" />
        </mxCell>
        <mxCell id="DnBdWf2Q5VkKPlAViFYQ-83" value="" style="rounded=0;whiteSpace=wrap;html=1;fontFamily=Helvetica;fontSize=11;fontColor=default;labelBackgroundColor=default;" vertex="1" parent="1">
          <mxGeometry x="-1480" y="-200" width="220" height="80" as="geometry" />
        </mxCell>
        <mxCell id="DnBdWf2Q5VkKPlAViFYQ-78" value="&lt;font style=&quot;font-size: 20px;&quot;&gt;&lt;b&gt;Extension Cycle&lt;/b&gt;&lt;/font&gt;" style="text;html=1;align=center;verticalAlign=middle;resizable=0;points=[];autosize=1;strokeColor=none;fillColor=none;fontFamily=Helvetica;fontSize=11;fontColor=default;labelBackgroundColor=default;" vertex="1" parent="1">
          <mxGeometry x="-1460" y="-180" width="180" height="40" as="geometry" />
        </mxCell>
      </root>
    </mxGraphModel>
  </diagram>
</mxfile>
